inDegrees=no
num_controls=7
num_derivatives=13
num_iterations=148
num_multipliers=7
num_parameters=0
num_slacks=7
num_states=26
objective=0.229302
objective_accelerations=0.000000
objective_balance=0.003767
objective_effort=0.044311
objective_height=0.172369
objective_ligament=0.008856
solver_duration=2132.600622
status=Solve_Succeeded
success=true
DataType=double
version=3
OpenSimVersion=4.5
endheader
time	/jointset/ground_pelvis/pelvis_tilt/value	/jointset/ground_pelvis/pelvis_tx/value	/jointset/ground_pelvis/pelvis_ty/value	/jointset/hip_l/hip_flexion_l/value	/jointset/hip_l/hip_adduction_l/value	/jointset/hip_l/hip_rotation_l/value	/jointset/back/lumbar_extension/value	/jointset/patellofemoral_l/patellar_flexion_l/value	/jointset/knee_l/knee_flexion_l/value	/jointset/knee_l/knee_adduction_l/value	/jointset/knee_l/knee_rotation_l/value	/jointset/ankle_l/ankle_angle_l/value	/jointset/subtalar_l/subtalar_angle_l/value	/jointset/ground_pelvis/pelvis_tilt/speed	/jointset/ground_pelvis/pelvis_tx/speed	/jointset/ground_pelvis/pelvis_ty/speed	/jointset/hip_l/hip_flexion_l/speed	/jointset/hip_l/hip_adduction_l/speed	/jointset/hip_l/hip_rotation_l/speed	/jointset/back/lumbar_extension/speed	/jointset/patellofemoral_l/patellar_flexion_l/speed	/jointset/knee_l/knee_flexion_l/speed	/jointset/knee_l/knee_adduction_l/speed	/jointset/knee_l/knee_rotation_l/speed	/jointset/ankle_l/ankle_angle_l/speed	/jointset/subtalar_l/subtalar_angle_l/speed	/forceset/tau_hip_flexion_l	/forceset/tau_hip_adduction_l	/forceset/tau_hip_rotation_l	/forceset/tau_knee_flexion_l	/forceset/tau_ankle_angle_l	/forceset/tau_subtalar_angle_l	/forceset/tau_lumbar_extension	lambda_cid13_p0	lambda_cid13_p1	lambda_cid13_p2	lambda_cid13_p3	lambda_cid13_p4	lambda_cid13_p5	lambda_cid14_p0	/jointset/ground_pelvis/pelvis_tilt/accel	/jointset/ground_pelvis/pelvis_tx/accel	/jointset/ground_pelvis/pelvis_ty/accel	/jointset/hip_l/hip_flexion_l/accel	/jointset/hip_l/hip_adduction_l/accel	/jointset/hip_l/hip_rotation_l/accel	/jointset/back/lumbar_extension/accel	/jointset/patellofemoral_l/patellar_flexion_l/accel	/jointset/knee_l/knee_flexion_l/accel	/jointset/knee_l/knee_adduction_l/accel	/jointset/knee_l/knee_rotation_l/accel	/jointset/ankle_l/ankle_angle_l/accel	/jointset/subtalar_l/subtalar_angle_l/accel	gamma_cid13_p0	gamma_cid13_p1	gamma_cid13_p2	gamma_cid13_p3	gamma_cid13_p4	gamma_cid13_p5	gamma_cid14_p0
0	0.05128044641499444	0.1067134323647715	0.9029342727939081	0.1266922784136757	-0.3695550581561295	-0.2048972094286262	-0.2144969558742783	0.2051545070141804	0.2051545070141877	-0.1745195664058644	-0.1408665642400467	0.09024313228550125	0.07930056510912098	0	0	0	0	0	0	0	0	0	0	0	0	0	0.1672720099578726	-0.1582151135937739	0.04244503204539485	0.3075101116904942	0.1348116324783734	-0.0939106258542962	-0.4970135115859812	102.1554803636998	17.9640173755344	2.491628906106222	-284.0513466914459	998.0782572141062	72.39700346301183	-25.61592162812388	187.8572393248672	-28.91554839563759	-13.17657260259569	248.2002872943556	119.0984676666845	-68.86201444479154	-319.1033792813955	704.9277075802676	704.9277075803666	413.5185980657396	-259.0702101928312	346.2381005675946	233.9006297852099	-0.004721394214952656	0.009937717576305724	-0.02284142524523556	0.001664708493393845	0.01651728669900719	0.03494452874848399	-0.0007829434959266434
0.01	0.05831389693428021	0.1053437268753704	0.902129891287518	0.1399977210567097	-0.3636771534885964	-0.2074587991136485	-0.2274936914901064	0.2372080821928721	0.2372080821928823	-0.1543266508868744	-0.1514615889426805	0.1060450273267553	0.09056939542551462	1.227346646757892	-0.2637730015290952	-0.2039792305112134	2.598384628214601	1.064362179143871	-0.391522809580299	-2.343880063877843	5.94701384721358	5.947013847213738	3.791018580878263	-1.749367345332002	2.937043927380771	2.108859871793362	0.1765252421504613	-0.1475729594442381	0.04184225465157498	0.2411235524932756	0.09406517696628815	-0.124527233862819	-0.4142895493237181	82.07758163045766	36.6414865796627	-2.590210488726903	-157.6919829417533	999.9797787014011	117.4893668119401	-25.73177600264765	62.11673949121603	-23.2500198801802	-27.17058032056161	255.2854634299874	87.6074854188202	-2.449117295661776	-153.7102610477999	470.1896337122504	470.1896337122122	323.088587783611	-81.30652892931309	232.6475993153649	178.9553321949963	-0.0005900053867227816	0.006652285208078807	-0.01320753394989124	0.000436320496641733	0.0068347593503876	0.01764100866030512	0.0008517254834853791
0.02	0.07200948634913276	0.1017079226009515	0.8986533210669799	0.1772125925508811	-0.3496551485535137	-0.2095659575106841	-0.2562652159660772	0.31485207792777	0.314852077927764	-0.1039845296221421	-0.1692375935438213	0.144259373740227	0.1188421577235613	1.332427779114413	-0.4532197570035795	-0.5344377428295409	4.781885770228199	1.628820053511015	0.0908862575988939	-3.154957772028536	9.118084111241048	9.118084111240872	6.029841149146181	-1.43619597970114	4.482490274443408	3.400786396330607	0.1857784743430594	-0.1369308052947115	0.04123947725776002	0.1747369932960822	0.05331872145421283	-0.1551438418713492	-0.331565587061461	59.20475349153856	58.15717062239198	-10.86017503733057	8.593568816006616	997.2164551918734	195.3076018812091	-25.47282149335576	-36.59586355540694	-14.05029918471539	-38.47242896401852	165.2235900541549	19.11760671133901	105.9243609071068	-12.54290813596563	149.7389909430451	149.7389909430456	103.0793955436705	153.4375319997416	67.91858450396768	70.51396033398667	0.003541383441507093	0.003366852839851889	-0.003573642654546922	-0.0007920675001103789	-0.002847767998231988	0.000337488572126253	0.002486394462897402
0.03	0.08038992411812357	0.09653656586048666	0.890993637265567	0.236041948452772	-0.3332564918114868	-0.202106690552311	-0.2846339763935651	0.4129826499749216	0.4129826499749193	-0.04105836670161282	-0.1744193421918894	0.1915380850942256	0.1553437299309381	0.06294357839257944	-0.5761755008194455	-1.024815306685093	7.246728242511966	1.590768070045341	1.509593596751295	-2.179908154482991	10.50612001590063	10.50612001590057	6.28503673061814	0.4467298576037155	4.890625924056589	3.800571094058675	0.2231108754964194	-0.1282015217918667	0.02885897602072057	0.1749167435105492	0.06322270173872353	-0.1305236025714782	-0.2662030632253106	60.51017393001852	50.75850460142507	-13.70731303202499	66.60370901623898	999.9589655292283	223.4126389469676	-23.98612541689961	-213.653305782493	-10.85017512338723	-59.02653840339774	327.0799104061923	-24.66747999676751	176.7320857228565	203.3618205477383	132.5454642683816	132.5454642683961	-53.42219608658594	212.2373999794088	15.69165218586573	9.668534287997282	-0.0006772823309285124	-0.001876627180145699	0.006294741652748984	-7.591539447917282e-05	-0.002669150390208763	-0.003557655234467221	-0.0007138681967210204
0.04	0.06776979838951257	0.09024925905319015	0.8774889541641838	0.3275127959956403	-0.319118530728366	-0.1770827171417052	-0.2930856558760129	0.5248354958768621	0.5248354958768592	0.01638738492651603	-0.1594683743901951	0.24058427234353	0.1928347110747518	-2.867684920406112	-0.6764097703699111	-1.703437602823601	11.31018409842392	1.176680921729792	3.603827548045689	0.8284584169795061	11.86253888219887	11.86253888219884	4.933758890668313	2.590347310250625	4.835985453504661	3.598668183617961	0.2604432766497938	-0.1194722382890195	0.01647847478367632	0.1750964937250273	0.07312668202323934	-0.1059033632716023	-0.2008405393891535	59.86859139637744	42.98751969432772	-15.6740672966032	108.9148589994479	948.394203309585	235.9405793701614	-20.72250206360311	-368.8247231707786	-9.5060043316353	-76.12137542060991	484.9462667797916	-56.08942625863583	241.0296833355056	394.1204826474249	143.4155832707763	143.4155832707597	-218.215288740687	205.5758550681524	-24.63663952905438	-49.82356129976957	-0.005068114177604643	-0.007160479316674642	0.01616796086750781	0.0006803303215104529	-0.002287210205759913	-0.007176337674430062	-0.004013820168484401
0.05	0.02333023495519448	0.08306805489443256	0.8570865719804354	0.4601736647917544	-0.3103624845026776	-0.1304859932959161	-0.2678662327627373	0.6479621558141599	0.6479621558141596	0.05252877044487357	-0.1258110399050865	0.2865619302587769	0.2253288131352353	-5.819205601767393	-0.7588140004207692	-2.337957348270208	14.9253204051823	0.6036656500229632	5.520773330868814	4.012126827923331	12.57437583417088	12.57437583417068	2.345585030432238	3.870914866868167	4.32001208261046	2.886940896120377	0.2227706087334077	-0.07939764856720542	-0.006235399695764548	0.1067617936086891	0.0573838079899905	-0.07218868006332904	-0.1633690388243508	37.73477499665663	32.7623823079436	-14.68201351860419	118.2873285632857	605.8008432727069	181.7532776261265	-15.52514140962924	-228.9255075108449	-7.312896056894946	-51.70940691412516	254.491294575251	-54.68203586068604	135.0902810001809	249.9951136550383	7.634590809168099	7.634590809153329	-272.0188224334904	51.45210878360934	-72.30947490306588	-84.54501769430556	-0.002828201450901926	-0.006025612338874687	0.008973960673797965	0.0002375446027427705	-0.002367673491805463	-0.005323749820373697	-0.002209270541353229
0.06	-0.04474648867114558	0.07512175569214964	0.8314205657807332	0.6199246930457302	-0.3066914826408533	-0.0711071605730033	-0.2169091068725885	0.7727205532009297	0.7727205532009288	0.06420833980717915	-0.0869170492887907	0.325933496658389	0.2501661012768323	-7.595116958810362	-0.8294287790749802	-2.756162406014366	16.72821598999627	0.1596720489569507	6.16024932347054	5.97599897235423	12.18888637209309	12.1888863720928	0.04139565945926045	3.637678536487877	3.514767150377747	2.067305399840686	0.185097940817022	-0.03932305884538995	-0.02894927417521669	0.03842709349235043	0.04164093395674205	-0.03847399685505334	-0.125897538259548	20.65432288475344	19.94881495062218	-11.29257555149183	100.9117926359524	321.525507589506	112.0220435666056	-9.719203397407691	-133.7028583071162	-7.148114052305917	-32.85843788012039	122.498122390911	-30.28509213047252	-14.46427470877425	150.1612293448395	-76.04969953918346	-76.04969953918362	-161.4183908880675	-97.18492233141403	-82.49095179675649	-71.40520305619087	-0.0003090994790043104	-0.004620483503629303	0.001061340715521018	-0.0002557266501199565	-0.002467606397661303	-0.003240792690779681	-0.0001897945311107058
0.07000000000000001	-0.1241083435092497	0.06651944391652156	0.8027538520183376	0.7890336663573919	-0.306720194370162	-0.0114715263698193	-0.1533003715285878	0.8893414206389335	0.889341420638933	0.0572770207370036	-0.05702011681977465	0.3568834963789218	0.266819859960675	-8.05143277737292	-0.8841591109282052	-2.935055881049858	16.82017333966878	-0.1760211246507393	5.661461622609934	6.486414305397791	11.08361053005937	11.08361053005921	-1.304617041839851	2.246485285080061	2.694434689807975	1.238136716597233	0.09911966755112414	-0.01581149440273347	-0.02905461037948355	-0.07797360955195268	0.002009064687053833	-0.02331872170800507	-0.0903076904456827	-11.09362403839232	18.88043035593922	-11.06643986740719	83.54740200028895	-50.84441985276811	49.2414674767996	-4.911937871373395	32.31197856896237	-3.661447358980997	-4.580865090510517	-88.46684586421758	-36.48135363052987	-83.81890143620176	-37.41838337309351	-135.5045339436004	-135.504533943582	-103.3925477514045	-174.41563107861	-79.16068815468876	-91.82172184158622	0.000121957363141774	-0.001777451551562559	-0.0001389477904638155	-0.0002147881232803693	-0.001178835376833886	-0.001531604029524245	0.0001271520592288203
